<svg width="608" height="318" viewBox="0 0 608 318" fill="none" xmlns="http://www.w3.org/2000/svg">
<path fill-rule="evenodd" clip-rule="evenodd" d="M136.297 0H138.894C142.026 0 145.029 1.23115 147.243 3.42262C149.457 5.61408 150.701 8.58634 150.701 11.6855V12.7372C150.703 14.7864 151.25 16.7991 152.286 18.5732C153.322 20.3474 154.811 21.8206 156.605 22.8452L159.143 24.3059C160.938 25.3315 162.974 25.8715 165.046 25.8715C167.119 25.8715 169.155 25.3315 170.95 24.3059L171.835 23.8385C174.545 22.2917 177.763 21.8721 180.785 22.6718C183.806 23.4714 186.384 25.425 187.951 28.1037L189.25 30.324C190.813 33.0054 191.237 36.1911 190.429 39.1816C189.621 42.1721 187.647 44.7232 184.941 46.2747L184.055 46.8006C182.253 47.8301 180.759 49.3126 179.722 51.0979C178.685 52.8832 178.144 54.9079 178.152 56.967V59.8884C178.144 61.9475 178.685 63.9722 179.722 65.7575C180.759 67.5428 182.253 69.0253 184.055 70.0548L184.941 70.5222C187.647 72.0738 189.621 74.6248 190.429 77.6154C191.237 80.6059 190.813 83.7916 189.25 86.473L187.951 88.7517C186.384 91.4304 183.806 93.384 180.785 94.1837C177.763 94.9833 174.545 94.5637 171.835 93.0169L170.95 92.5495C169.155 91.5239 167.119 90.9839 165.046 90.9839C162.974 90.9839 160.938 91.5239 159.143 92.5495L156.605 94.0102C154.811 95.0348 153.322 96.5081 152.286 98.2822C151.25 100.056 150.703 102.069 150.701 104.118V105.17C150.701 108.269 149.457 111.241 147.243 113.433C145.029 115.624 142.026 116.855 138.894 116.855H136.297C133.166 116.855 130.163 115.624 127.948 113.433C125.734 111.241 124.49 108.269 124.49 105.17V104.118C124.488 102.069 123.942 100.056 122.905 98.2822C121.869 96.5081 120.38 95.0348 118.587 94.0102L116.048 92.5495C114.254 91.5239 112.218 90.9839 110.145 90.9839C108.073 90.9839 106.037 91.5239 104.242 92.5495L103.356 93.0169C100.647 94.5637 97.4282 94.9833 94.4066 94.1837C91.3851 93.384 88.8076 91.4304 87.2399 88.7517L85.9412 86.5314C84.3784 83.85 83.9544 80.6643 84.7623 77.6738C85.5703 74.6833 87.5442 72.1322 90.2507 70.5807L91.1362 70.0548C92.9379 69.0253 94.4328 67.5428 95.4695 65.7575C96.5062 63.9722 97.0478 61.9475 97.0395 59.8884V56.9086C97.0271 54.8693 96.4757 52.8687 95.44 51.1057C94.4044 49.3427 92.9206 47.8787 91.1362 46.859L90.2507 46.2747C87.5442 44.7232 85.5703 42.1721 84.7623 39.1816C83.9544 36.1911 84.3784 33.0054 85.9412 30.324L87.2399 28.1037C88.8076 25.425 91.3851 23.4714 94.4066 22.6718C97.4282 21.8721 100.647 22.2917 103.356 23.8385L104.242 24.3059C106.037 25.3315 108.073 25.8715 110.145 25.8715C112.218 25.8715 114.254 25.3315 116.048 24.3059L118.587 22.8452C120.38 21.8206 121.869 20.3474 122.905 18.5732C123.942 16.7991 124.488 14.7864 124.49 12.7372V11.6855C124.49 8.58634 125.734 5.61408 127.948 3.42262C130.163 1.23115 133.166 0 136.297 0ZM166.809 58.9067C166.809 75.0411 153.729 88.1206 137.595 88.1206C121.461 88.1206 108.381 75.0411 108.381 58.9067C108.381 42.7723 121.461 29.6928 137.595 29.6928C153.729 29.6928 166.809 42.7723 166.809 58.9067Z" fill="#72A3FF"/>
<path d="M492.452 143.838L494.153 105.582C511.89 96.1018 531.672 91.0941 551.783 90.994C524.104 113.623 527.564 157.245 508.798 187.676C502.873 197.122 494.897 205.114 485.463 211.059C476.029 217.004 465.378 220.75 454.3 222.02L431.137 236.201C427.959 218.483 428.66 200.286 433.191 182.865C437.723 165.443 445.977 149.211 457.386 135.287C463.864 127.539 471.291 120.637 479.493 114.745C485.041 129.373 492.452 143.838 492.452 143.838Z" fill="#72A3FF"/>
<path d="M333.62 312.981H251.039L253.839 276.59H330.821L333.62 312.981Z" fill="#F7FCFF"/>
<path d="M339.218 308.783H246.84V317.181H339.218V308.783Z" fill="white"/>
<path d="M450.493 42.1446H134.867C132.639 42.1446 130.503 43.0294 128.928 44.6043C127.353 46.1793 126.468 48.3153 126.468 50.5426V242.998H458.891V50.5426C458.891 49.4398 458.674 48.3477 458.252 47.3288C457.83 46.3099 457.211 45.3842 456.432 44.6043C455.652 43.8245 454.726 43.2059 453.707 42.7839C452.688 42.3618 451.596 42.1446 450.493 42.1446Z" fill="#112F6A"/>
<path d="M126.468 242.998V274.491C126.468 275.593 126.686 276.685 127.108 277.704C127.53 278.723 128.148 279.649 128.928 280.429C129.708 281.209 130.634 281.827 131.653 282.249C132.672 282.671 133.764 282.889 134.867 282.889H450.493C452.721 282.889 454.857 282.004 456.432 280.429C458.007 278.854 458.891 276.718 458.891 274.491V242.998H126.468Z" fill="white"/>
<path d="M442.795 59.6404H143.264V227.601H442.795V59.6404Z" fill="#CCD8FF"/>
<path d="M293.029 270.992C297.667 270.992 301.427 267.232 301.427 262.593C301.427 257.955 297.667 254.195 293.029 254.195C288.391 254.195 284.631 257.955 284.631 262.593C284.631 267.232 288.391 270.992 293.029 270.992Z" fill="#112F6A"/>
<path d="M152.603 66.7348C153.484 66.7348 154.197 66.0213 154.197 65.1411C154.197 64.2609 153.484 63.5473 152.603 63.5473C151.723 63.5473 151.01 64.2609 151.01 65.1411C151.01 66.0213 151.723 66.7348 152.603 66.7348Z" fill="white"/>
<path d="M158.653 66.7348C159.534 66.7348 160.247 66.0213 160.247 65.1411C160.247 64.2609 159.534 63.5473 158.653 63.5473C157.773 63.5473 157.06 64.2609 157.06 65.1411C157.06 66.0213 157.773 66.7348 158.653 66.7348Z" fill="white"/>
<path d="M164.702 66.7348C165.582 66.7348 166.296 66.0213 166.296 65.1411C166.296 64.2609 165.582 63.5473 164.702 63.5473C163.822 63.5473 163.108 64.2609 163.108 65.1411C163.108 66.0213 163.822 66.7348 164.702 66.7348Z" fill="white"/>
<path d="M123.307 199.647H120.882V254.167H123.307V199.647Z" fill="#112F6A"/>
<path d="M138.522 254L138.369 256.458L138.159 259.924L138.068 261.359L137.853 264.826L137.762 266.26L137.547 269.722L135.103 309.147C134.998 310.843 134.25 312.436 133.013 313.602C131.776 314.768 130.142 315.42 128.442 315.425H115.747C114.05 315.42 112.417 314.77 111.181 313.607C109.944 312.444 109.195 310.855 109.086 309.161L106.638 269.736L106.428 266.274L106.337 264.84L106.117 261.373L106.031 259.939L105.816 256.472L105.663 254.014C105.634 253.543 105.702 253.071 105.862 252.628C106.023 252.184 106.273 251.778 106.596 251.434C106.919 251.091 107.31 250.817 107.743 250.63C108.176 250.443 108.643 250.347 109.115 250.347H135.075C135.545 250.346 136.011 250.441 136.443 250.627C136.875 250.813 137.265 251.086 137.588 251.428C137.911 251.77 138.16 252.175 138.321 252.617C138.482 253.06 138.55 253.53 138.522 254Z" fill="#112F6A"/>
<path d="M138.374 256.458L138.158 259.924H106.031L105.82 256.458H138.374Z" fill="#607DC9"/>
<path d="M138.072 261.368L137.857 264.84H106.337L106.121 261.368H138.072Z" fill="#607DC9"/>
<path d="M137.762 266.284L137.551 269.751H106.643L106.428 266.284H137.762Z" fill="#607DC9"/>
<path d="M102.119 220.084C116.22 230.283 122.092 246.244 122.092 246.244C122.092 246.244 105.098 245.661 91.0115 235.457C76.9247 225.253 71.0002 209.296 71.0002 209.296C71.0002 209.296 88.0134 209.88 102.119 220.084Z" fill="#72A3FF"/>
<path d="M71.0002 209.296C71.0002 209.296 88.6398 219.089 94.2965 227.194C99.9531 235.299 122.073 246.244 122.073 246.244" stroke="#112F6A" stroke-width="0.95633" stroke-miterlimit="10"/>
<path d="M111.219 199.527C118.898 205.079 122.092 213.767 122.092 213.767C122.092 213.767 112.844 213.447 105.165 207.895C97.4856 202.344 94.2963 193.656 94.2963 193.656C94.2963 193.656 103.544 193.971 111.219 199.527Z" fill="#72A3FF"/>
<path d="M94.2963 193.656C94.2963 193.656 103.893 198.987 106.977 203.396C110.061 207.804 122.092 213.767 122.092 213.767" stroke="#112F6A" stroke-width="0.95633" stroke-miterlimit="10"/>
<path d="M133.248 213.322C124.43 223.015 122.566 235.677 122.566 235.677C122.566 235.677 134.998 232.626 143.815 222.934C152.633 213.241 154.498 200.584 154.498 200.584C154.498 200.584 142.065 203.63 133.248 213.322Z" fill="#72A3FF"/>
<path d="M154.498 200.584C154.498 200.584 143.022 210.516 140.09 217.363C137.159 224.21 122.566 235.677 122.566 235.677" stroke="#112F6A" stroke-width="0.95633" stroke-miterlimit="10"/>
<path d="M434.162 72.2964H151.01V213.356H434.162V72.2964Z" fill="white"/>
<path d="M407.348 114.843C408.958 114.843 410.263 115.4 410.263 116.088V118.577C410.263 119.265 408.958 119.822 407.348 119.822H177.156C175.547 119.822 174.242 119.265 174.242 118.577V116.088C174.242 115.4 175.547 114.843 177.156 114.843H407.348Z" fill="#72A3FF"/>
<path d="M407.348 128.785C408.958 128.785 410.263 129.342 410.263 130.03V132.52C410.263 133.207 408.958 133.764 407.348 133.764H177.156C175.547 133.764 174.242 133.207 174.242 132.52V130.03C174.242 129.342 175.547 128.785 177.156 128.785H407.348Z" fill="#72A3FF"/>
<path d="M407.348 142.727C408.958 142.727 410.263 143.285 410.263 143.972V146.462C410.263 147.149 408.958 147.707 407.348 147.707H177.156C175.547 147.707 174.242 147.149 174.242 146.462V143.973C174.242 143.285 175.547 142.728 177.156 142.728H407.348" fill="#72A3FF"/>
<path d="M407.348 158.661C408.958 158.661 410.263 159.218 410.263 159.906V162.396C410.263 163.083 408.958 163.64 407.348 163.64H177.156C175.547 163.64 174.242 163.083 174.242 162.396V159.906C174.242 159.218 175.547 158.661 177.156 158.661H407.348Z" fill="#72A3FF"/>
<path d="M407.348 172.603C408.958 172.603 410.263 173.161 410.263 173.848V176.338C410.263 177.025 408.958 177.583 407.348 177.583H177.156C175.547 177.583 174.242 177.025 174.242 176.338V173.848C174.242 173.161 175.547 172.603 177.156 172.603H407.348Z" fill="#72A3FF"/>
<path d="M407.348 186.545C408.958 186.545 410.263 187.103 410.263 187.79V190.28C410.263 190.967 408.958 191.525 407.348 191.525H177.156C175.547 191.525 174.242 190.967 174.242 190.28V187.791C174.242 187.104 175.547 186.546 177.156 186.546H407.348" fill="#72A3FF"/>
<rect x="175.238" y="89.9462" width="43.8182" height="12.9463" rx="2.9876" fill="#657EAD"/>
<rect x="238.973" y="89.9462" width="43.8182" height="12.9463" rx="2.9876" fill="#657EAD"/>
<rect x="302.709" y="89.9462" width="43.8182" height="12.9463" rx="2.9876" fill="#657EAD"/>
<rect x="366.445" y="89.9462" width="43.8182" height="12.9463" rx="2.9876" fill="#657EAD"/>
<path d="M524.92 315.3H432.562C427.946 315.295 424.186 311.757 424.181 307.413V181.48C424.186 177.135 427.946 173.597 432.562 173.592H524.92C529.536 173.597 533.295 177.135 533.3 181.479V307.412C533.295 311.757 529.536 315.295 524.92 315.3Z" fill="#112F6A"/>
<path d="M525.837 307.719H431.645C430.152 307.718 428.936 306.638 428.934 305.313V184.413C428.936 183.088 430.152 182.008 431.644 182.007H525.837C527.33 182.008 528.546 183.088 528.548 184.413V305.313C528.546 306.638 527.33 307.718 525.837 307.719Z" fill="white"/>
<path d="M478.617 179.631C478.168 179.629 477.734 179.471 477.388 179.185C477.042 178.899 476.806 178.501 476.721 178.06C476.635 177.62 476.705 177.163 476.918 176.768C477.132 176.373 477.476 176.064 477.891 175.894C478.307 175.724 478.768 175.703 479.197 175.835C479.627 175.968 479.997 176.244 480.244 176.619C480.492 176.993 480.603 177.442 480.557 177.889C480.511 178.335 480.312 178.752 479.993 179.068C479.812 179.248 479.597 179.39 479.361 179.487C479.125 179.583 478.872 179.632 478.617 179.631Z" fill="white"/>
<path d="M436.95 305.998H520.961C522.019 305.998 522.876 305.14 522.876 304.082V185.122C522.876 184.064 522.019 183.206 520.961 183.206H436.95C435.892 183.206 435.035 184.064 435.035 185.122V304.082C435.035 305.14 435.892 305.998 436.95 305.998Z" fill="white"/>
<path d="M503.332 202.633C503.673 202.633 503.95 202.91 503.95 203.251V204.486C503.95 204.827 503.673 205.104 503.332 205.104H454.579C454.238 205.104 453.961 204.827 453.961 204.486V203.251C453.961 202.91 454.238 202.633 454.579 202.633H503.332Z" fill="#72A3FF"/>
<path d="M503.332 208.5C503.673 208.5 503.95 208.776 503.95 209.117V210.353C503.95 210.694 503.673 210.97 503.332 210.97H454.579C454.238 210.97 453.961 210.694 453.961 210.353V209.117C453.961 208.776 454.238 208.5 454.579 208.5H503.332Z" fill="#72A3FF"/>
<path d="M503.332 214.367C503.673 214.367 503.95 214.643 503.95 214.984V216.22C503.95 216.561 503.673 216.837 503.332 216.837H454.579C454.238 216.837 453.961 216.561 453.961 216.22V214.985C453.961 214.644 454.238 214.367 454.579 214.367H503.332" fill="#72A3FF"/>
<path d="M470.108 244.542C471.02 243.953 471.212 242.694 470.574 241.816L467.587 237.703C466.889 236.741 465.544 236.527 464.583 237.225C464.498 237.287 464.417 237.355 464.342 237.429C459.284 240.135 456.561 244.087 459.588 248.758C459.588 249.539 459.645 250.318 459.758 251.09C459.808 251.425 459.92 251.752 460.111 252.032C460.678 252.861 461.679 253.166 462.559 252.879L467.445 251.29C468.483 250.953 469.045 249.819 468.662 248.796C468.166 247.474 468.37 245.663 470.108 244.542Z" fill="#D4E3FF"/>
<path d="M481.704 256.676C480.298 256.537 479.098 257.696 479.098 259.109V263.327C479.098 263.436 479.107 263.545 479.123 263.653C479.304 264.829 480.403 265.635 481.577 265.454C488.424 266.299 493.103 263.319 493.385 256.782C493.43 256.69 493.468 256.595 493.5 256.498C493.864 255.368 493.245 254.156 492.116 253.791L488.026 252.461C486.614 252.002 485.148 252.919 484.901 254.383C484.677 255.706 483.805 256.883 481.704 256.676Z" fill="#72A3FF"/>
<path d="M456.413 260.8C457.833 269.233 465.228 272.432 472.94 272.938C473.091 272.961 473.244 272.973 473.396 272.973C475.06 272.974 476.409 271.625 476.41 269.961V262.908C476.41 260.936 474.794 259.399 472.823 259.38C470.917 259.36 469.675 258.458 469.165 256.801C468.582 254.909 466.504 253.911 464.622 254.523L458.189 256.615C457.356 256.885 456.681 257.505 456.341 258.313C456.003 259.113 456.029 260.021 456.413 260.8Z" fill="#657EAD"/>
<path d="M496.044 231.638C494.856 230.475 492.951 230.494 491.788 231.682C491.685 231.788 491.589 231.901 491.503 232.021L485.787 239.894C485.056 240.901 485.474 242.303 486.616 242.795C489.292 243.946 489.01 246.531 488.139 248.112C487.712 248.888 488.065 249.858 488.906 250.131L498.538 253.263C500.123 253.775 501.822 252.904 502.334 251.319C502.385 251.159 502.423 250.995 502.448 250.829C502.613 249.726 502.696 248.612 502.696 247.496C504.325 241.416 502.071 235.684 496.044 231.638H496.044Z" fill="#72A3FF"/>
<path d="M479.503 240.767C480.57 241.369 481.917 241.078 482.637 240.086L484.552 237.449C484.923 236.938 485.052 236.289 484.905 235.674C484.762 235.07 484.362 234.56 483.81 234.277C479.304 230.203 473.971 229.953 469.448 234.256C468.88 234.543 468.466 235.066 468.316 235.685C468.169 236.296 468.297 236.94 468.666 237.448L470.904 240.53C471.672 241.589 473.161 241.866 474.221 241.098C475.759 239.983 477.995 239.918 479.503 240.767V240.767Z" fill="#72A3FF"/>
<path d="M454.274 293.896C454.446 293.168 455.253 292.928 455.914 292.956C456.331 292.984 456.744 293.049 457.15 293.151C457.574 293.246 457.994 293.359 458.412 293.478C459.179 293.697 459.937 293.961 460.716 294.132C461.37 294.311 462.058 294.321 462.717 294.162C463.35 293.988 463.849 293.498 464.035 292.868C464.224 292.265 463.952 291.614 463.39 291.326C462.87 291.04 462.217 291.229 461.93 291.749C461.926 291.757 461.922 291.764 461.918 291.772C461.677 292.414 461.866 293.137 462.39 293.579C462.658 293.831 462.952 294.055 463.267 294.246C463.586 294.464 463.942 294.623 464.317 294.716C464.955 294.886 465.629 294.622 465.984 294.065C466.055 293.932 466.097 293.785 466.109 293.635C466.128 293.43 465.808 293.431 465.789 293.635C465.736 294.221 465.049 294.495 464.536 294.432C464.189 294.374 463.858 294.246 463.564 294.054C463.28 293.888 463.011 293.698 462.759 293.486C462.324 293.109 461.916 292.489 462.208 291.9C462.436 291.522 462.926 291.4 463.304 291.628C463.355 291.659 463.402 291.694 463.444 291.735C463.901 292.109 463.82 292.788 463.518 293.232C463.156 293.696 462.597 293.963 462.009 293.953C461.389 293.954 460.772 293.857 460.182 293.666C459.446 293.457 458.717 293.223 457.978 293.026C457.558 292.914 457.135 292.813 456.708 292.735C456.304 292.645 455.888 292.617 455.476 292.649C454.779 292.682 454.177 293.145 453.965 293.81C453.919 294.011 454.227 294.096 454.274 293.896Z" fill="#07164B"/>
<path d="M466.925 285.561C467.022 285.561 467.1 285.838 467.1 286.179V287.414C467.1 287.755 467.022 288.032 466.925 288.032H453.145C453.049 288.032 452.971 287.756 452.971 287.414V286.179C452.971 285.838 453.049 285.561 453.145 285.561H466.925Z" fill="#72A3FF"/>
<path d="M503.775 285.561C503.872 285.561 503.95 285.838 503.95 286.179V287.414C503.95 287.755 503.872 288.032 503.775 288.032H489.995C489.899 288.032 489.821 287.756 489.821 287.414V286.179C489.821 285.838 489.899 285.561 489.995 285.561H503.775Z" fill="#72A3FF"/>
<path d="M497.639 292.519L494.904 293.424L493.536 293.876C493.116 294.056 492.662 294.139 492.205 294.121C491.868 294.099 491.572 293.889 491.439 293.578C491.381 293.267 491.515 292.95 491.779 292.776C492.432 292.279 493.257 292.784 493.72 293.299C494.285 293.928 494.606 294.741 495.136 295.4C495.608 295.991 496.207 296.469 496.889 296.798C498.25 297.474 499.874 297.335 501.101 296.438C502.543 295.325 502.69 293.395 502.698 291.712C502.692 291.551 502.557 291.424 502.395 291.43C502.242 291.435 502.118 291.559 502.113 291.712C502.106 293.238 502.019 295.107 500.63 296.062C499.298 296.976 497.549 296.734 496.323 295.759C495.691 295.197 495.165 294.525 494.771 293.776C494.333 293.059 493.79 292.367 492.966 292.088C492.237 291.824 491.423 292.108 491.018 292.769C490.669 293.358 490.862 294.117 491.45 294.467C491.496 294.494 491.543 294.518 491.591 294.539C492.547 294.994 493.64 294.461 494.559 294.156L497.796 293.086C498.152 292.968 497.999 292.403 497.641 292.521L497.639 292.519Z" fill="#72A3FF"/>
<path d="M607.49 315.807H0V318H607.49V315.807Z" fill="url(#paint0_linear_38_43)"/>
<defs>
<linearGradient id="paint0_linear_38_43" x1="607.49" y1="318.003" x2="-3.62091e-05" y2="318.003" gradientUnits="userSpaceOnUse">
<stop offset="0.026717" stop-color="#3E74DE" stop-opacity="0"/>
<stop offset="0.246836" stop-color="#3E74DE"/>
<stop offset="0.780113" stop-color="#3E74DE"/>
<stop offset="0.984347" stop-color="#3E74DE" stop-opacity="0"/>
</linearGradient>
</defs>
</svg>
